<svg xmlns="http://www.w3.org/2000/svg" xmlns:xlink="http://www.w3.org/1999/xlink" width="500" zoomAndPan="magnify" viewBox="0 0 375 374.999991" height="500" preserveAspectRatio="xMidYMid meet" version="1.0"><defs><g/><clipPath id="f2e89276b3"><path d="M 160.488281 57.359375 L 321.648438 57.359375 L 321.648438 77.15625 L 160.488281 77.15625 Z M 160.488281 57.359375 " clip-rule="nonzero"/></clipPath><clipPath id="e52b388860"><path d="M 302.867188 57.359375 L 322.398438 57.359375 L 322.398438 274.515625 L 302.867188 274.515625 Z M 302.867188 57.359375 " clip-rule="nonzero"/></clipPath><clipPath id="e0bac121a5"><path d="M 28.285156 115.839844 L 47.816406 115.839844 L 47.816406 338.226562 L 28.285156 338.226562 Z M 28.285156 115.839844 " clip-rule="nonzero"/></clipPath><clipPath id="d6c6d9782a"><path d="M 28.285156 318.429688 L 129.785156 318.429688 L 129.785156 338.226562 L 28.285156 338.226562 Z M 28.285156 318.429688 " clip-rule="nonzero"/></clipPath></defs><path stroke-linecap="butt" transform="matrix(0.702389, 0, 0, 0.702389, 28.256634, 22.113972)" fill="none" stroke-linejoin="miter" d="M 29.32681 118.072575 C 21.31843 118.072575 15.556845 116.381917 12.042056 112.99504 C 8.549512 109.608162 6.714259 103.968928 6.541856 96.071775 C 6.085823 74.476955 6.085823 52.832082 6.541856 31.131595 C 6.714259 23.317863 8.549512 17.717558 12.042056 14.330681 C 15.556845 10.949365 21.31843 9.253145 29.32681 9.253145 C 37.335191 9.253145 43.063407 10.949365 46.517021 14.330681 C 49.98732 17.717558 51.867065 23.317863 52.145133 31.131595 C 52.667903 52.915503 52.667903 74.565937 52.145133 96.071775 C 51.867065 103.968928 49.98732 109.608162 46.517021 112.99504 C 43.063407 116.381917 37.335191 118.072575 29.32681 118.072575 Z M 29.32681 106.193478 C 34.754713 106.193478 37.552085 103.663052 37.724487 98.607762 C 37.985872 91.227817 38.14159 83.547558 38.18052 75.561423 C 38.247256 67.553042 38.225011 59.544662 38.119345 51.541843 C 38.030363 43.533462 37.902451 35.88101 37.724487 28.590047 C 37.552085 23.623739 34.754713 21.137804 29.32681 21.137804 C 23.815488 21.137804 21.018116 23.623739 20.929134 28.590047 C 20.667749 35.88101 20.495346 43.533462 20.411926 51.541843 C 20.322944 59.544662 20.322944 67.553042 20.411926 75.561423 C 20.495346 83.547558 20.667749 91.227817 20.929134 98.607762 C 21.018116 103.663052 23.815488 106.193478 29.32681 106.193478 Z M 64.786139 116.99923 L 64.786139 10.332052 L 87.209605 10.332052 L 94.14464 44.217512 L 102.803701 104.208067 L 105.862457 104.208067 L 103.32647 51.931139 L 102.253125 10.332052 L 116.245545 10.332052 L 116.245545 116.99923 L 92.943382 116.99923 L 85.713595 80.477678 L 78.650648 22.989742 L 75.330507 22.989742 L 77.610671 76.345577 L 78.77856 116.99923 Z M 128.513939 116.99923 L 128.513939 10.332052 L 166.664973 10.332052 L 166.664973 23.123215 L 143.068058 23.123215 L 143.068058 56.619378 L 165.330243 56.619378 L 165.330243 69.410542 L 143.068058 69.410542 L 143.068058 104.208067 L 166.664973 104.208067 L 166.664973 116.99923 Z M 128.513939 116.99923 " stroke="#5e17eb" stroke-width="4.999988" stroke-opacity="1" stroke-miterlimit="4"/><g clip-path="url(#f2e89276b3)"><path fill="#5e17eb" d="M 160.488281 57.359375 L 321.667969 57.359375 L 321.667969 77.15625 L 160.488281 77.15625 Z M 160.488281 57.359375 " fill-opacity="1" fill-rule="nonzero"/></g><path stroke-linecap="butt" transform="matrix(0.702389, 0, 0, 0.702389, 60.889383, 213.250402)" fill="none" stroke-linejoin="miter" d="M 22.091551 89.915743 C 15.94067 89.915743 11.563868 88.614382 8.955583 86.006097 C 6.363982 83.397812 5.007006 79.093307 4.873533 73.092583 C 4.806797 68.02617 4.751183 62.659443 4.701131 56.98684 C 4.667762 51.308676 4.667762 45.636073 4.701131 39.963471 C 4.751183 34.274184 4.806797 28.896334 4.873533 23.829921 C 4.94027 18.56886 6.319491 14.470126 9.005635 11.53372 C 11.708463 8.58063 16.074143 7.106865 22.091551 7.106865 C 28.0311 7.106865 32.335604 8.408227 35.010626 11.016512 C 37.680086 13.619236 39.081553 17.895933 39.215026 23.829921 C 39.281762 25.665175 39.31513 27.895286 39.31513 30.536939 C 39.31513 33.156347 39.281762 35.386459 39.215026 37.216151 L 28.281362 37.216151 C 28.281362 34.991601 28.298046 32.455614 28.331414 29.619312 C 28.359221 26.783011 28.342537 24.213656 28.281362 21.900124 C 28.214625 18.057213 26.151355 16.138539 22.091551 16.138539 C 18.037308 16.138539 15.94067 18.057213 15.807197 21.900124 C 15.612549 30.49801 15.512444 39.351719 15.512444 48.472375 C 15.512444 57.59303 15.612549 66.44674 15.807197 75.02238 C 15.94067 78.932027 18.037308 80.88407 22.091551 80.88407 C 26.41274 80.88407 28.609483 78.932027 28.676219 75.02238 C 28.742956 72.647673 28.776324 69.989336 28.776324 67.05293 C 28.776324 64.116523 28.742956 61.502677 28.676219 59.21139 L 39.63769 59.21139 C 39.698865 61.435941 39.732234 63.73835 39.732234 66.113057 C 39.732234 68.47108 39.698865 70.801297 39.63769 73.092583 C 39.487533 79.093307 38.041575 83.397812 35.305379 86.006097 C 32.585866 88.614382 28.181257 89.915743 22.091551 89.915743 Z M 58.273859 88.998117 L 58.273859 68.738026 L 57.356232 64.578118 L 45.087838 7.924387 L 56.344062 7.924387 L 60.303761 29.202209 L 62.628416 52.726827 L 64.852966 52.726827 L 67.177621 29.202209 L 71.13732 7.924387 L 82.393543 7.924387 L 70.125149 64.578118 L 69.207523 68.738026 L 69.207523 88.998117 Z M 89.361947 88.998117 L 89.361947 7.924387 L 104.778079 7.924387 C 110.862224 7.924387 115.305762 9.209065 118.108696 11.783982 C 120.91719 14.353337 122.352025 18.546614 122.4132 24.35269 C 122.4132 26.510504 122.4132 28.456985 122.4132 30.192134 C 122.4132 31.905038 122.385393 33.57345 122.318657 35.186249 C 122.101763 38.439654 121.40103 41.009009 120.216457 42.905438 C 119.043007 44.785183 117.202191 46.164404 114.694011 47.03754 L 114.694011 49.167547 C 117.268928 49.973946 119.165357 51.342044 120.388859 53.271842 C 121.606801 55.201639 122.285288 57.826608 122.4132 61.141188 C 122.546673 64.917362 122.546673 68.726904 122.4132 72.569814 C 122.135131 78.392574 120.661367 82.591412 117.986345 85.166329 C 115.333569 87.719 110.962328 88.998117 104.872622 88.998117 Z M 100.423522 43.105648 L 104.778079 43.105648 C 109.160443 43.105648 111.390554 40.369451 111.457291 34.891496 C 111.524027 31.165375 111.524027 27.478183 111.457291 23.829921 C 111.390554 19.708942 109.160443 17.645671 104.778079 17.645671 L 100.423522 17.645671 Z M 100.423522 79.276833 L 104.872622 79.276833 C 109.193811 79.276833 111.390554 77.007791 111.457291 72.475271 C 111.524027 68.827008 111.524027 65.217676 111.457291 61.63615 C 111.390554 58.471728 110.828855 56.208248 109.772194 54.856834 C 108.732217 53.505419 107.035997 52.826932 104.677974 52.826932 L 100.423522 52.826932 Z M 130.199125 88.998117 L 130.199125 7.924387 L 159.196136 7.924387 L 159.196136 17.645671 L 141.25514 17.645671 L 141.25514 43.105648 L 158.178405 43.105648 L 158.178405 52.826932 L 141.25514 52.826932 L 141.25514 79.276833 L 159.196136 79.276833 L 159.196136 88.998117 Z M 166.576081 88.998117 L 166.576081 7.924387 L 182.603965 7.924387 C 188.61025 7.924387 192.981491 9.209065 195.717688 11.783982 C 198.459446 14.353337 199.922088 18.546614 200.122297 24.35269 C 200.25577 28.062127 200.322507 31.337777 200.322507 34.174079 C 200.322507 37.01038 200.25577 40.085821 200.122297 43.4004 C 199.860912 50.974994 197.358294 55.841197 192.625563 57.999011 L 201.434782 88.998117 L 189.7837 88.998117 L 182.286966 59.806458 L 177.632095 59.806458 L 177.632095 88.998117 Z M 177.632095 50.079612 L 182.481615 50.079612 C 186.752751 50.079612 188.988424 48.055272 189.188633 43.995468 C 189.516754 37.249519 189.516754 30.525817 189.188633 23.829921 C 188.988424 19.708942 186.797242 17.645671 182.603965 17.645671 L 177.632095 17.645671 Z M 177.632095 50.079612 " stroke="#ffffff" stroke-width="7.60065" stroke-opacity="1" stroke-miterlimit="4"/><path stroke-linecap="butt" transform="matrix(0.702389, 0, 0, 0.702389, 60.889383, 213.250402)" fill="none" stroke-linejoin="miter" d="M 130.716333 190.815775 C 124.626627 190.815775 120.299877 189.514414 117.724961 186.906129 C 115.166728 184.303405 113.7597 179.998901 113.492754 173.992615 C 113.426018 171.617908 113.409333 169.315499 113.442702 167.090948 C 113.47607 164.860837 113.592859 162.536182 113.793068 160.111422 L 124.131665 160.111422 C 123.998192 162.880987 123.920333 165.622745 123.886964 168.325574 C 123.853596 171.017279 123.937017 173.547705 124.131665 175.922412 C 124.265138 177.952314 124.849082 179.437202 125.88906 180.377074 C 126.945721 181.316946 128.552958 181.784102 130.716333 181.784102 C 132.80741 181.784102 134.34235 181.316946 135.315591 180.377074 C 136.305516 179.437202 136.867214 177.952314 137.000687 175.922412 C 137.195336 173.614442 137.278756 171.534487 137.245388 169.688111 C 137.21202 167.82505 137.128599 165.644991 137.000687 163.153495 C 136.867214 161.190329 136.461234 159.499671 135.788308 158.08152 C 135.10982 156.66337 133.886317 155.717936 132.123361 155.239658 L 125.344045 153.504509 C 120.761472 152.369988 117.619295 150.379016 115.917514 147.542714 C 114.237978 144.706413 113.331474 140.857941 113.198001 135.991738 C 113.198001 134.156484 113.198001 132.304546 113.198001 130.424801 C 113.198001 128.528372 113.231369 126.65975 113.298106 124.830058 C 113.492754 118.829334 114.888659 114.541513 117.474699 111.966597 C 120.082984 109.39168 124.493154 108.107002 130.716333 108.107002 C 136.522409 108.107002 140.743493 109.39168 143.379585 111.966597 C 146.021238 114.541513 147.439389 118.829334 147.634037 124.830058 C 147.700774 126.531838 147.717458 128.578425 147.684089 130.969816 C 147.650721 133.361207 147.60623 135.774844 147.539494 138.216288 L 137.000687 138.216288 C 137.061863 135.641371 137.111915 133.094261 137.145283 130.569397 C 137.178651 128.03341 137.128599 125.475177 137.000687 122.90026 C 136.867214 119.05735 134.737208 117.138676 130.616229 117.138676 C 128.51959 117.138676 126.962405 117.616954 125.939112 118.57351 C 124.932503 119.513383 124.365243 120.953779 124.23177 122.90026 C 124.03156 125.080319 123.953701 127.26594 123.981508 129.457122 C 124.014876 131.653865 124.098297 133.828363 124.23177 135.991738 C 124.365243 138.216288 124.782346 139.973682 125.494202 141.25836 C 126.200497 142.548599 127.50742 143.421735 129.403849 143.883329 L 135.487993 145.318164 C 140.270776 146.458246 143.507497 148.499271 145.187032 151.452361 C 146.888813 154.388767 147.845369 158.287291 148.056702 163.153495 C 148.123438 165.31687 148.140122 167.174369 148.106754 168.720431 C 148.073386 170.272055 148.017772 172.02945 147.934351 173.992615 C 147.734142 179.998901 146.315991 184.303405 143.679899 186.906129 C 141.05493 189.514414 136.733741 190.815775 130.716333 190.815775 Z M 157.455426 189.998253 L 157.455426 108.924524 L 186.452437 108.924524 L 186.452437 118.645808 L 168.517001 118.645808 L 168.517001 144.105784 L 185.434705 144.105784 L 185.434705 153.827068 L 168.517001 153.827068 L 168.517001 180.276969 L 186.452437 180.276969 L 186.452437 189.998253 Z M 211.272855 190.91588 C 205.121973 190.91588 200.745171 189.614518 198.136886 187.006233 C 195.545285 184.397948 194.18831 180.093444 194.054837 174.09272 C 193.9881 169.026307 193.932486 163.65958 193.882434 157.986977 C 193.849066 152.308813 193.849066 146.63621 193.882434 140.963607 C 193.932486 135.27432 193.9881 129.89647 194.054837 124.830058 C 194.121573 119.568997 195.495233 115.470263 198.186938 112.533857 C 200.889767 109.580767 205.255446 108.107002 211.272855 108.107002 C 217.212403 108.107002 221.516908 109.408364 224.191929 112.016649 C 226.861389 114.619373 228.262856 118.89607 228.396329 124.830058 C 228.463066 126.65975 228.496434 128.895423 228.496434 131.537076 C 228.496434 134.156484 228.463066 136.386595 228.396329 138.216288 L 217.457104 138.216288 C 217.457104 135.991738 217.473788 133.455751 217.507156 130.619449 C 217.540524 127.783148 217.52384 125.213792 217.457104 122.90026 C 217.395929 119.05735 215.332658 117.138676 211.272855 117.138676 C 207.218612 117.138676 205.121973 119.05735 204.9885 122.90026 C 204.793852 131.492585 204.693748 140.351856 204.693748 149.472512 C 204.693748 158.593167 204.793852 167.446876 204.9885 176.022517 C 205.121973 179.932164 207.218612 181.884207 211.272855 181.884207 C 215.594043 181.884207 217.790786 179.932164 217.857523 176.022517 C 217.918698 173.64781 217.952066 170.989473 217.952066 168.053066 C 217.952066 165.11666 217.918698 162.502814 217.857523 160.211527 L 228.813432 160.211527 C 228.880169 162.436077 228.913537 164.738487 228.913537 167.113194 C 228.913537 169.471217 228.880169 171.801433 228.813432 174.09272 C 228.668836 180.093444 227.222879 184.397948 224.486682 187.006233 C 221.76717 189.614518 217.36256 190.91588 211.272855 190.91588 Z M 254.134374 190.815775 C 247.983493 190.815775 243.567761 189.531098 240.898301 186.956181 C 238.239963 184.381264 236.882988 180.093444 236.816251 174.09272 C 236.532621 152.403356 236.532621 130.680624 236.816251 108.924524 L 247.749915 108.924524 C 247.616442 119.741399 247.555267 130.925325 247.555267 142.47074 C 247.555267 154.016155 247.616442 165.200081 247.749915 176.022517 C 247.749915 179.865427 249.879922 181.784102 254.134374 181.784102 C 258.32209 181.784102 260.418728 179.865427 260.418728 176.022517 C 260.485465 165.200081 260.535517 154.016155 260.568885 142.47074 C 260.596692 130.925325 260.552201 119.741399 260.418728 108.924524 L 271.352392 108.924524 C 271.636022 130.680624 271.636022 152.403356 271.352392 174.09272 C 271.285655 180.093444 269.917557 184.381264 267.248097 186.956181 C 264.589759 189.531098 260.218518 190.815775 254.134374 190.815775 Z M 280.873466 189.998253 L 280.873466 108.924524 L 296.906911 108.924524 C 302.907635 108.924524 307.278876 110.209202 310.015073 112.784119 C 312.756831 115.353474 314.225034 119.546751 314.419682 125.352827 C 314.553155 129.062264 314.619892 132.337914 314.619892 135.174216 C 314.619892 138.010517 314.553155 141.085958 314.419682 144.400537 C 314.158297 151.97513 311.66124 156.835772 306.922948 158.999147 L 315.732167 189.998253 L 304.081085 189.998253 L 296.584352 160.806594 L 291.92948 160.806594 L 291.92948 189.998253 Z M 291.92948 151.079749 L 296.779 151.079749 C 301.055697 151.079749 303.285809 149.055408 303.486018 144.995604 C 303.814139 138.249656 303.814139 131.525953 303.486018 124.830058 C 303.285809 120.709078 301.094627 118.645808 296.906911 118.645808 L 291.92948 118.645808 Z M 322.82292 189.998253 L 322.82292 108.924524 L 333.884496 108.924524 L 333.884496 189.998253 Z M 352.615208 189.998253 L 352.615208 118.645808 L 340.864022 118.645808 L 340.864022 108.924524 L 375.22776 108.924524 L 375.22776 118.645808 L 363.576678 118.645808 L 363.576678 189.998253 Z M 393.06309 189.998253 L 393.06309 169.738163 L 392.145463 165.578254 L 379.877069 108.924524 L 391.133293 108.924524 L 395.092992 130.202346 L 397.417647 153.726964 L 399.642197 153.726964 L 401.966852 130.202346 L 405.926551 108.924524 L 417.182775 108.924524 L 404.914381 165.578254 L 403.996754 169.738163 L 403.996754 189.998253 Z M 393.06309 189.998253 " stroke="#ffffff" stroke-width="7.60065" stroke-opacity="1" stroke-miterlimit="4"/><g fill="#000000" fill-opacity="1"><g transform="translate(60.889383, 275.763042)"><g><path d="M 15.515625 0.640625 C 11.203125 0.640625 8.128906 -0.269531 6.296875 -2.09375 C 4.472656 -3.925781 3.515625 -6.953125 3.421875 -11.171875 C 3.367188 -14.734375 3.332031 -18.503906 3.3125 -22.484375 C 3.289062 -26.472656 3.289062 -30.460938 3.3125 -34.453125 C 3.332031 -38.441406 3.367188 -42.21875 3.421875 -45.78125 C 3.460938 -49.476562 4.429688 -52.359375 6.328125 -54.421875 C 8.234375 -56.484375 11.296875 -57.515625 15.515625 -57.515625 C 19.691406 -57.515625 22.71875 -56.597656 24.59375 -54.765625 C 26.46875 -52.941406 27.453125 -49.945312 27.546875 -45.78125 C 27.597656 -44.488281 27.625 -42.914062 27.625 -41.0625 C 27.625 -39.21875 27.597656 -37.65625 27.546875 -36.375 L 19.859375 -36.375 C 19.859375 -37.9375 19.867188 -39.710938 19.890625 -41.703125 C 19.921875 -43.703125 19.910156 -45.507812 19.859375 -47.125 C 19.816406 -49.832031 18.367188 -51.1875 15.515625 -51.1875 C 12.671875 -51.1875 11.203125 -49.832031 11.109375 -47.125 C 10.960938 -41.09375 10.890625 -34.875 10.890625 -28.46875 C 10.890625 -22.0625 10.960938 -15.847656 11.109375 -9.828125 C 11.203125 -7.066406 12.671875 -5.6875 15.515625 -5.6875 C 18.554688 -5.6875 20.097656 -7.066406 20.140625 -9.828125 C 20.191406 -11.484375 20.21875 -13.34375 20.21875 -15.40625 C 20.21875 -17.476562 20.191406 -19.316406 20.140625 -20.921875 L 27.828125 -20.921875 C 27.878906 -19.359375 27.90625 -17.742188 27.90625 -16.078125 C 27.90625 -14.421875 27.878906 -12.785156 27.828125 -11.171875 C 27.734375 -6.953125 26.722656 -3.925781 24.796875 -2.09375 C 22.878906 -0.269531 19.785156 0.640625 15.515625 0.640625 Z M 15.515625 0.640625 "/></g></g></g><g fill="#000000" fill-opacity="1"><g transform="translate(90.923874, 275.763042)"><g><path d="M 10.890625 0 L 10.890625 -14.234375 L 10.25 -17.15625 L 1.640625 -56.953125 L 9.546875 -56.953125 L 12.3125 -42 L 13.953125 -25.484375 L 15.515625 -25.484375 L 17.15625 -42 L 19.9375 -56.953125 L 27.828125 -56.953125 L 19.21875 -17.15625 L 18.578125 -14.234375 L 18.578125 0 Z M 10.890625 0 "/></g></g></g><g fill="#000000" fill-opacity="1"><g transform="translate(120.388992, 275.763042)"><g><path d="M 3.28125 0 L 3.28125 -56.953125 L 14.09375 -56.953125 C 18.363281 -56.953125 21.484375 -56.050781 23.453125 -54.25 C 25.421875 -52.445312 26.429688 -49.503906 26.484375 -45.421875 C 26.484375 -43.898438 26.484375 -42.535156 26.484375 -41.328125 C 26.484375 -40.117188 26.457031 -38.941406 26.40625 -37.796875 C 26.269531 -35.523438 25.785156 -33.722656 24.953125 -32.390625 C 24.117188 -31.054688 22.828125 -30.082031 21.078125 -29.46875 L 21.078125 -27.984375 C 22.878906 -27.410156 24.207031 -26.445312 25.0625 -25.09375 C 25.914062 -23.738281 26.390625 -21.898438 26.484375 -19.578125 C 26.578125 -16.921875 26.578125 -14.238281 26.484375 -11.53125 C 26.296875 -7.445312 25.265625 -4.503906 23.390625 -2.703125 C 21.515625 -0.898438 18.441406 0 14.171875 0 Z M 11.03125 -32.25 L 14.09375 -32.25 C 17.175781 -32.25 18.742188 -34.171875 18.796875 -38.015625 C 18.835938 -40.617188 18.835938 -43.207031 18.796875 -45.78125 C 18.742188 -48.664062 17.175781 -50.109375 14.09375 -50.109375 L 11.03125 -50.109375 Z M 11.03125 -6.828125 L 14.171875 -6.828125 C 17.203125 -6.828125 18.742188 -8.421875 18.796875 -11.609375 C 18.835938 -14.171875 18.835938 -16.707031 18.796875 -19.21875 C 18.742188 -21.445312 18.347656 -23.035156 17.609375 -23.984375 C 16.878906 -24.929688 15.6875 -25.40625 14.03125 -25.40625 L 11.03125 -25.40625 Z M 11.03125 -6.828125 "/></g></g></g><g fill="#000000" fill-opacity="1"><g transform="translate(149.071221, 275.763042)"><g><path d="M 3.28125 0 L 3.28125 -56.953125 L 23.640625 -56.953125 L 23.640625 -50.109375 L 11.03125 -50.109375 L 11.03125 -32.25 L 22.921875 -32.25 L 22.921875 -25.40625 L 11.03125 -25.40625 L 11.03125 -6.828125 L 23.640625 -6.828125 L 23.640625 0 Z M 3.28125 0 "/></g></g></g><g fill="#000000" fill-opacity="1"><g transform="translate(174.621894, 275.763042)"><g><path d="M 3.28125 0 L 3.28125 -56.953125 L 14.515625 -56.953125 C 18.742188 -56.953125 21.816406 -56.050781 23.734375 -54.25 C 25.660156 -52.445312 26.695312 -49.503906 26.84375 -45.421875 C 26.9375 -42.804688 26.984375 -40.5 26.984375 -38.5 C 26.984375 -36.507812 26.9375 -34.351562 26.84375 -32.03125 C 26.644531 -26.71875 24.882812 -23.300781 21.5625 -21.78125 L 27.765625 0 L 19.578125 0 L 14.3125 -20.5 L 11.03125 -20.5 L 11.03125 0 Z M 11.03125 -27.34375 L 14.453125 -27.34375 C 17.441406 -27.34375 19.007812 -28.765625 19.15625 -31.609375 C 19.382812 -36.347656 19.382812 -41.070312 19.15625 -45.78125 C 19.007812 -48.664062 17.460938 -50.109375 14.515625 -50.109375 L 11.03125 -50.109375 Z M 11.03125 -27.34375 "/></g></g></g><g fill="#000000" fill-opacity="1"><g transform="translate(60.889383, 346.704352)"><g/></g></g><g fill="#000000" fill-opacity="1"><g transform="translate(76.120144, 346.704352)"><g/></g></g><g fill="#000000" fill-opacity="1"><g transform="translate(91.350906, 346.704352)"><g/></g></g><g fill="#000000" fill-opacity="1"><g transform="translate(106.581667, 346.704352)"><g/></g></g><g fill="#000000" fill-opacity="1"><g transform="translate(121.812429, 346.704352)"><g/></g></g><g fill="#000000" fill-opacity="1"><g transform="translate(137.043738, 346.704352)"><g><path d="M 15.65625 0.5625 C 11.382812 0.5625 8.347656 -0.347656 6.546875 -2.171875 C 4.742188 -3.992188 3.75 -7.019531 3.5625 -11.25 C 3.507812 -12.90625 3.492188 -14.515625 3.515625 -16.078125 C 3.546875 -17.648438 3.628906 -19.289062 3.765625 -21 L 11.03125 -21 C 10.9375 -19.050781 10.878906 -17.128906 10.859375 -15.234375 C 10.835938 -13.335938 10.894531 -11.554688 11.03125 -9.890625 C 11.125 -8.472656 11.539062 -7.429688 12.28125 -6.765625 C 13.019531 -6.097656 14.144531 -5.765625 15.65625 -5.765625 C 17.132812 -5.765625 18.21875 -6.097656 18.90625 -6.765625 C 19.59375 -7.429688 19.984375 -8.472656 20.078125 -9.890625 C 20.210938 -11.503906 20.269531 -12.960938 20.25 -14.265625 C 20.226562 -15.578125 20.171875 -17.109375 20.078125 -18.859375 C 19.984375 -20.234375 19.695312 -21.421875 19.21875 -22.421875 C 18.75 -23.421875 17.894531 -24.085938 16.65625 -24.421875 L 11.890625 -25.625 C 8.660156 -26.4375 6.453125 -27.835938 5.265625 -29.828125 C 4.078125 -31.816406 3.4375 -34.519531 3.34375 -37.9375 C 3.34375 -39.21875 3.34375 -40.519531 3.34375 -41.84375 C 3.34375 -43.175781 3.367188 -44.488281 3.421875 -45.78125 C 3.554688 -50 4.535156 -53.007812 6.359375 -54.8125 C 8.191406 -56.613281 11.289062 -57.515625 15.65625 -57.515625 C 19.738281 -57.515625 22.707031 -56.613281 24.5625 -54.8125 C 26.414062 -53.007812 27.410156 -50 27.546875 -45.78125 C 27.597656 -44.59375 27.609375 -43.15625 27.578125 -41.46875 C 27.554688 -39.78125 27.523438 -38.082031 27.484375 -36.375 L 20.078125 -36.375 C 20.117188 -38.175781 20.148438 -39.96875 20.171875 -41.75 C 20.203125 -43.53125 20.171875 -45.320312 20.078125 -47.125 C 19.984375 -49.832031 18.488281 -51.1875 15.59375 -51.1875 C 14.125 -51.1875 13.03125 -50.851562 12.3125 -50.1875 C 11.601562 -49.519531 11.203125 -48.5 11.109375 -47.125 C 10.960938 -45.601562 10.898438 -44.070312 10.921875 -42.53125 C 10.953125 -40.988281 11.015625 -39.457031 11.109375 -37.9375 C 11.203125 -36.375 11.5 -35.140625 12 -34.234375 C 12.5 -33.335938 13.410156 -32.722656 14.734375 -32.390625 L 19 -31.390625 C 22.375 -30.585938 24.65625 -29.148438 25.84375 -27.078125 C 27.03125 -25.015625 27.691406 -22.273438 27.828125 -18.859375 C 27.878906 -17.347656 27.890625 -16.046875 27.859375 -14.953125 C 27.835938 -13.859375 27.804688 -12.625 27.765625 -11.25 C 27.617188 -7.019531 26.617188 -3.992188 24.765625 -2.171875 C 22.921875 -0.347656 19.882812 0.5625 15.65625 0.5625 Z M 15.65625 0.5625 "/></g></g></g><g fill="#000000" fill-opacity="1"><g transform="translate(168.216986, 346.704352)"><g><path d="M 3.28125 0 L 3.28125 -56.953125 L 23.640625 -56.953125 L 23.640625 -50.109375 L 11.03125 -50.109375 L 11.03125 -32.25 L 22.921875 -32.25 L 22.921875 -25.40625 L 11.03125 -25.40625 L 11.03125 -6.828125 L 23.640625 -6.828125 L 23.640625 0 Z M 3.28125 0 "/></g></g></g><g fill="#000000" fill-opacity="1"><g transform="translate(193.767658, 346.704352)"><g><path d="M 15.515625 0.640625 C 11.203125 0.640625 8.128906 -0.269531 6.296875 -2.09375 C 4.472656 -3.925781 3.515625 -6.953125 3.421875 -11.171875 C 3.367188 -14.734375 3.332031 -18.503906 3.3125 -22.484375 C 3.289062 -26.472656 3.289062 -30.460938 3.3125 -34.453125 C 3.332031 -38.441406 3.367188 -42.21875 3.421875 -45.78125 C 3.460938 -49.476562 4.429688 -52.359375 6.328125 -54.421875 C 8.234375 -56.484375 11.296875 -57.515625 15.515625 -57.515625 C 19.691406 -57.515625 22.71875 -56.597656 24.59375 -54.765625 C 26.46875 -52.941406 27.453125 -49.945312 27.546875 -45.78125 C 27.597656 -44.488281 27.625 -42.914062 27.625 -41.0625 C 27.625 -39.21875 27.597656 -37.65625 27.546875 -36.375 L 19.859375 -36.375 C 19.859375 -37.9375 19.867188 -39.710938 19.890625 -41.703125 C 19.921875 -43.703125 19.910156 -45.507812 19.859375 -47.125 C 19.816406 -49.832031 18.367188 -51.1875 15.515625 -51.1875 C 12.671875 -51.1875 11.203125 -49.832031 11.109375 -47.125 C 10.960938 -41.09375 10.890625 -34.875 10.890625 -28.46875 C 10.890625 -22.0625 10.960938 -15.847656 11.109375 -9.828125 C 11.203125 -7.066406 12.671875 -5.6875 15.515625 -5.6875 C 18.554688 -5.6875 20.097656 -7.066406 20.140625 -9.828125 C 20.191406 -11.484375 20.21875 -13.34375 20.21875 -15.40625 C 20.21875 -17.476562 20.191406 -19.316406 20.140625 -20.921875 L 27.828125 -20.921875 C 27.878906 -19.359375 27.90625 -17.742188 27.90625 -16.078125 C 27.90625 -14.421875 27.878906 -12.785156 27.828125 -11.171875 C 27.734375 -6.953125 26.722656 -3.925781 24.796875 -2.09375 C 22.878906 -0.269531 19.785156 0.640625 15.515625 0.640625 Z M 15.515625 0.640625 "/></g></g></g><g fill="#000000" fill-opacity="1"><g transform="translate(223.802149, 346.704352)"><g><path d="M 15.59375 0.5625 C 11.269531 0.5625 8.171875 -0.335938 6.296875 -2.140625 C 4.421875 -3.941406 3.460938 -6.953125 3.421875 -11.171875 C 3.222656 -26.410156 3.222656 -41.671875 3.421875 -56.953125 L 11.109375 -56.953125 C 11.015625 -49.359375 10.96875 -41.503906 10.96875 -33.390625 C 10.96875 -25.273438 11.015625 -17.421875 11.109375 -9.828125 C 11.109375 -7.117188 12.601562 -5.765625 15.59375 -5.765625 C 18.53125 -5.765625 20 -7.117188 20 -9.828125 C 20.050781 -17.421875 20.085938 -25.273438 20.109375 -33.390625 C 20.128906 -41.503906 20.09375 -49.359375 20 -56.953125 L 27.6875 -56.953125 C 27.882812 -41.671875 27.882812 -26.410156 27.6875 -11.171875 C 27.644531 -6.953125 26.6875 -3.941406 24.8125 -2.140625 C 22.9375 -0.335938 19.863281 0.5625 15.59375 0.5625 Z M 15.59375 0.5625 "/></g></g></g><g fill="#000000" fill-opacity="1"><g transform="translate(254.904222, 346.704352)"><g><path d="M 3.28125 0 L 3.28125 -56.953125 L 14.515625 -56.953125 C 18.742188 -56.953125 21.816406 -56.050781 23.734375 -54.25 C 25.660156 -52.445312 26.695312 -49.503906 26.84375 -45.421875 C 26.9375 -42.804688 26.984375 -40.5 26.984375 -38.5 C 26.984375 -36.507812 26.9375 -34.351562 26.84375 -32.03125 C 26.644531 -26.71875 24.882812 -23.300781 21.5625 -21.78125 L 27.765625 0 L 19.578125 0 L 14.3125 -20.5 L 11.03125 -20.5 L 11.03125 0 Z M 11.03125 -27.34375 L 14.453125 -27.34375 C 17.441406 -27.34375 19.007812 -28.765625 19.15625 -31.609375 C 19.382812 -36.347656 19.382812 -41.070312 19.15625 -45.78125 C 19.007812 -48.664062 17.460938 -50.109375 14.515625 -50.109375 L 11.03125 -50.109375 Z M 11.03125 -27.34375 "/></g></g></g><g fill="#000000" fill-opacity="1"><g transform="translate(284.36934, 346.704352)"><g><path d="M 3.28125 0 L 3.28125 -56.953125 L 11.03125 -56.953125 L 11.03125 0 Z M 3.28125 0 "/></g></g></g><g fill="#000000" fill-opacity="1"><g transform="translate(298.674872, 346.704352)"><g><path d="M 9.890625 0 L 9.890625 -50.109375 L 1.640625 -50.109375 L 1.640625 -56.953125 L 25.765625 -56.953125 L 25.765625 -50.109375 L 17.578125 -50.109375 L 17.578125 0 Z M 9.890625 0 "/></g></g></g><g fill="#000000" fill-opacity="1"><g transform="translate(326.076014, 346.704352)"><g><path d="M 10.890625 0 L 10.890625 -14.234375 L 10.25 -17.15625 L 1.640625 -56.953125 L 9.546875 -56.953125 L 12.3125 -42 L 13.953125 -25.484375 L 15.515625 -25.484375 L 17.15625 -42 L 19.9375 -56.953125 L 27.828125 -56.953125 L 19.21875 -17.15625 L 18.578125 -14.234375 L 18.578125 0 Z M 10.890625 0 "/></g></g></g><path stroke-linecap="butt" transform="matrix(0.75, 0, 0, 0.75, 54.567884, 115.247637)" fill="none" stroke-linejoin="miter" d="M 27.466781 111.008366 C 19.966781 111.008366 14.633447 109.398991 11.461572 106.190657 C 8.31053 102.977115 6.576155 97.675032 6.24803 90.27399 C 6.169905 87.346906 6.149072 84.513573 6.190738 81.768781 C 6.227197 79.023989 6.37303 76.159405 6.617822 73.17503 L 19.357406 73.17503 C 19.195947 76.586489 19.091781 79.961489 19.055322 83.294822 C 19.013656 86.607323 19.112614 89.727115 19.357406 92.654198 C 19.518864 95.154198 20.242823 96.982323 21.524073 98.138573 C 22.826156 99.300032 24.805323 99.878157 27.466781 99.878157 C 30.050115 99.878157 31.94074 99.300032 33.138657 98.138573 C 34.357407 96.982323 35.050115 95.154198 35.211573 92.654198 C 35.456365 89.810448 35.555324 87.247948 35.513657 84.971906 C 35.477199 82.675031 35.373032 79.992739 35.211573 76.92503 C 35.050115 74.503155 34.550115 72.419822 33.716782 70.67503 C 32.883448 68.92503 31.37824 67.758363 29.206365 67.169821 L 20.852198 65.034405 C 15.201156 63.633363 11.331364 61.180238 9.237613 57.685446 C 7.164697 54.190654 6.044905 49.445862 5.883447 43.45107 C 5.883447 41.195861 5.883447 38.909403 5.883447 36.591694 C 5.883447 34.253153 5.925113 31.956277 6.003238 29.701069 C 6.24803 22.300027 7.96678 17.018776 11.159489 13.846901 C 14.367822 10.675026 19.805322 9.091693 27.466781 9.091693 C 34.623032 9.091693 39.826157 10.675026 43.076157 13.846901 C 46.326158 17.018776 48.076158 22.300027 48.320949 29.701069 C 48.399074 31.794819 48.419908 34.315653 48.383449 37.258361 C 48.341783 40.206278 48.279283 43.185445 48.195949 46.190653 L 35.211573 46.190653 C 35.294907 43.023987 35.352198 39.883361 35.393865 36.773986 C 35.435532 33.643778 35.373032 30.492736 35.211573 27.32086 C 35.050115 22.586485 32.425115 20.216693 27.34699 20.216693 C 24.763656 20.216693 22.841781 20.810443 21.586573 21.987527 C 20.341781 23.143777 19.643864 24.925027 19.482406 27.32086 C 19.237614 30.003152 19.133447 32.695861 19.175114 35.398986 C 19.216781 38.102111 19.315739 40.784403 19.482406 43.45107 C 19.643864 46.190653 20.159489 48.35732 21.034489 49.940654 C 21.909489 51.529195 23.513656 52.60732 25.852198 53.175029 L 33.352198 54.940654 C 39.248032 56.346904 43.227199 58.862529 45.300116 62.503154 C 47.393866 66.122946 48.576158 70.92503 48.836574 76.92503 C 48.919908 79.586489 48.940741 81.872947 48.899074 83.784406 C 48.857408 85.690656 48.789699 87.857323 48.685533 90.27399 C 48.440741 97.675032 46.695949 102.977115 43.440741 106.190657 C 40.211574 109.398991 34.883448 111.008366 27.466781 111.008366 Z M 60.419908 109.997949 L 60.419908 10.096901 L 96.149077 10.096901 L 96.149077 22.081277 L 74.044909 22.081277 L 74.044909 53.451071 L 94.899077 53.451071 L 94.899077 65.430238 L 74.044909 65.430238 L 74.044909 98.018782 L 96.149077 98.018782 L 96.149077 109.997949 Z M 126.737621 111.128158 C 119.154287 111.128158 113.758454 109.523991 110.55012 106.310449 C 107.357412 103.102115 105.680328 97.794823 105.51887 90.39899 C 105.435536 84.159406 105.367828 77.544822 105.305328 70.55003 C 105.263661 63.560446 105.263661 56.570862 105.305328 49.57607 C 105.367828 42.565653 105.435536 35.940653 105.51887 29.701069 C 105.602203 23.216694 107.294912 18.16461 110.607412 14.550026 C 113.940745 10.909401 119.320954 9.091693 126.737621 9.091693 C 134.05533 9.091693 139.357414 10.695859 142.649081 13.909401 C 145.940747 17.117735 147.669914 22.38336 147.831373 29.701069 C 147.914706 31.956277 147.956373 34.711486 147.956373 37.961486 C 147.956373 41.195861 147.914706 43.935445 147.831373 46.190653 L 134.357413 46.190653 C 134.357413 43.45107 134.378247 40.331278 134.419913 36.836486 C 134.46158 33.336486 134.440747 30.169819 134.357413 27.32086 C 134.279288 22.586485 131.737621 20.216693 126.737621 20.216693 C 121.737621 20.216693 119.154287 22.586485 118.992829 27.32086 C 118.748037 37.909403 118.628246 48.82607 118.628246 60.065654 C 118.628246 71.305238 118.748037 82.206281 118.992829 92.77399 C 119.154287 97.591698 121.737621 100.003157 126.737621 100.003157 C 132.060538 100.003157 134.763663 97.591698 134.846997 92.77399 C 134.925122 89.846906 134.966788 86.576073 134.966788 82.961489 C 134.966788 79.341697 134.925122 76.117739 134.846997 73.294822 L 148.352206 73.294822 C 148.430331 76.039614 148.471998 78.872947 148.471998 81.800031 C 148.471998 84.706281 148.430331 87.570864 148.352206 90.39899 C 148.169914 97.794823 146.388664 103.102115 143.013664 106.310449 C 139.664705 109.523991 134.237622 111.128158 126.737621 111.128158 Z M 179.669916 111.008366 C 172.169916 111.008366 166.774082 109.419824 163.482415 106.247949 C 160.211582 103.081282 158.492832 97.794823 158.331373 90.39899 C 157.90429 70.17503 157.90429 49.904195 158.331373 29.576069 C 158.492832 22.263568 160.211582 17.018776 163.482415 13.846901 C 166.774082 10.675026 172.169916 9.091693 179.669916 9.091693 C 187.169917 9.091693 192.5345 10.675026 195.768876 13.846901 C 199.018876 17.018776 200.779293 22.263568 201.039709 29.576069 C 201.529293 49.98232 201.529293 70.258363 201.039709 90.39899 C 200.779293 97.794823 199.018876 103.081282 195.768876 106.247949 C 192.5345 109.419824 187.169917 111.008366 179.669916 111.008366 Z M 179.669916 99.878157 C 184.75325 99.878157 187.373042 97.508365 187.5345 92.77399 C 187.779292 85.867739 187.925125 78.669822 187.961584 71.190655 C 188.024084 63.690655 188.00325 56.190654 187.904292 48.690654 C 187.820959 41.195861 187.701167 34.029194 187.5345 27.201069 C 187.373042 22.544819 184.75325 20.216693 179.669916 20.216693 C 174.508458 20.216693 171.888666 22.544819 171.805332 27.201069 C 171.560541 34.029194 171.399082 41.195861 171.315749 48.690654 C 171.237624 56.190654 171.237624 63.690655 171.315749 71.190655 C 171.399082 78.669822 171.560541 85.867739 171.805332 92.77399 C 171.888666 97.508365 174.508458 99.878157 179.669916 99.878157 Z M 212.873043 109.997949 L 212.873043 10.096901 L 233.878253 10.096901 L 240.373045 41.831278 L 248.482421 98.018782 L 251.347004 98.018782 L 248.966796 49.060445 L 247.961587 10.096901 L 261.070963 10.096901 L 261.070963 109.997949 L 239.242837 109.997949 L 232.477211 75.794822 L 225.857419 21.956277 L 222.748044 21.956277 L 224.883461 71.92503 L 225.982419 109.997949 Z M 272.555339 109.997949 L 272.555339 10.096901 L 293.284507 10.096901 C 300.784508 10.096901 306.222008 11.742734 309.597008 15.034401 C 312.972008 18.331277 314.737634 23.716694 314.899092 31.195861 C 315.065759 38.023986 315.164717 44.54482 315.206384 50.76357 C 315.24805 56.966696 315.24805 63.14378 315.206384 69.30003 C 315.164717 75.461489 315.065759 81.951072 314.899092 88.784406 C 314.737634 96.341698 312.972008 101.768782 309.597008 105.060449 C 306.222008 108.352116 300.742841 109.997949 293.164715 109.997949 Z M 286.18034 98.018782 L 293.164715 98.018782 C 298.570966 98.018782 301.326174 95.477115 301.425133 90.39899 C 301.831383 70.17503 301.831383 49.940654 301.425133 29.701069 C 301.326174 24.617735 298.612632 22.081277 293.284507 22.081277 L 286.18034 22.081277 Z M 286.18034 98.018782 " stroke="#5e17eb" stroke-width="4.682625" stroke-opacity="1" stroke-miterlimit="4"/><g clip-path="url(#e52b388860)"><path fill="#5e17eb" d="M 302.867188 57.359375 L 322.398438 57.359375 L 322.398438 274.507812 L 302.867188 274.507812 Z M 302.867188 57.359375 " fill-opacity="1" fill-rule="nonzero"/></g><g clip-path="url(#e0bac121a5)"><path fill="#5e17eb" d="M 28.285156 115.839844 L 47.816406 115.839844 L 47.816406 338.253906 L 28.285156 338.253906 Z M 28.285156 115.839844 " fill-opacity="1" fill-rule="nonzero"/></g><g clip-path="url(#d6c6d9782a)"><path fill="#5e17eb" d="M 28.285156 318.429688 L 129.757812 318.429688 L 129.757812 338.226562 L 28.285156 338.226562 Z M 28.285156 318.429688 " fill-opacity="1" fill-rule="nonzero"/></g></svg>